# xmcd
#
# Track frame offsets:
#	150
#	15466
#	28203
#	40955
#	55158
#	61870
#	72105
#	83323
#	97146
#	107377
#	119692
#	129107
#	140324
#	153323
#	167096
#	179286
#	194574
#	205172
#	216315
#	225610
#
# Disc length: 3144 seconds
#
# Revision: 0
# Processed by: cddbd v1.5.2PL0 Copyright (c) Steve Scherf et al.
# Submitted via: dBpowerAMP V4.0
#
DISCID=0e0c4614
DTITLE=Country - 100 tubes country - CD5
DYEAR=1900
DGENRE=Country
TTITLE0=Desperado - Still In Love With You
TTITLE1=Hank Snow - I'm Movin' On
TTITLE2=Billie Joe Spears - Dallas
TTITLE3=The Hot Billys - Cotton Eyed Joe
TTITLE4=Boxcar Willie - I Saw the Light
TTITLE5=Faron Young - Live Fast Love Hard Die Young
TTITLE6=Chip Taylor and Carrie Rodriguez - My Bucket's Got a Hole
TTITLE7=Claude Diamond - Spend a Little Time With Me
TTITLE8=Dale Watson and his Lone Stars - Sit and Drink and Cry
TTITLE9=Lacy J Dalton - Dream Baby
TTITLE10=Tex Ritter - Froggy Went a Courtin'
TTITLE11=Don Gibson - One Day At a Time
TTITLE12=Kenny Rogers - Ruby Don't Take Your Love To Town
TTITLE13=Doug Stone - Addicted To a Dollar
TTITLE14=Moe Bandy - Good Old Boys
TTITLE15=Pam Tillis - Cleopatra Queen of Denial Live
TTITLE16=Irene Kelley - Comin' Back From the Moon
TTITLE17=Jack Greene - There Goes My Everything
TTITLE18=Doc Watson - Corn Likker
TTITLE19=Charlie Walker - Pick Me Up On Your Way
EXTD=
EXTT0=
EXTT1=
EXTT2=
EXTT3=
EXTT4=
EXTT5=
EXTT6=
EXTT7=
EXTT8=
EXTT9=
EXTT10=
EXTT11=
EXTT12=
EXTT13=
EXTT14=
EXTT15=
EXTT16=
EXTT17=
EXTT18=
EXTT19=
PLAYORDER=
